<svg width="171" height="72" viewBox="0 0 171 72" fill="none" xmlns="http://www.w3.org/2000/svg">
<g id="Logo" clip-path="url(#clip0_2126_2180)">
<g id="Group">
<path id="Vector" d="M26.0921 67.1682C24.8815 68.4827 23.4839 69.5478 21.8889 70.3583C20.2938 71.174 18.6053 71.6832 16.818 71.8962C15.4464 72.0572 14.1059 72.0365 12.7967 71.8286C11.4874 71.6208 10.2353 71.2571 9.05067 70.7376C7.86608 70.218 6.76462 69.553 5.7411 68.7477C4.71757 67.9424 3.81874 67.0227 3.03421 65.9888C2.24968 64.9549 1.61063 63.8275 1.10147 62.6013C0.597497 61.3752 0.264982 60.0763 0.10392 58.7047C-0.0571424 57.333 -0.0363602 55.9874 0.171462 54.6729C0.379284 53.3532 0.742973 52.1011 1.26253 50.9165C1.78208 49.7319 2.44712 48.6305 3.25243 47.6069C4.05774 46.5834 4.97735 45.6846 6.01127 44.9001C7.04518 44.1207 8.17262 43.4765 9.39877 42.9673C10.6249 42.4633 11.9238 42.1308 13.2954 41.9698C15.0827 41.762 16.844 41.8607 18.5845 42.2763C20.3198 42.692 21.9304 43.4037 23.4112 44.4169L20.9381 49.8151C19.9821 48.9994 18.9014 48.4175 17.6857 48.0642C16.4699 47.7109 15.2334 47.607 13.9709 47.7524C12.7083 47.8979 11.5289 48.2824 10.4691 48.9006C9.40916 49.5137 8.51552 50.2827 7.77775 51.2075C7.03999 52.1323 6.49965 53.1818 6.14635 54.3612C5.79305 55.5406 5.69434 56.7615 5.83981 58.024C5.98529 59.2866 6.36976 60.4452 6.98283 61.4947C7.59591 62.5442 8.37005 63.4378 9.30005 64.1756C10.2301 64.9133 11.2848 65.4537 12.4538 65.807C13.6279 66.1603 14.8489 66.259 16.127 66.1083C17.4051 65.9577 18.5689 65.5732 19.6704 64.9445C20.7666 64.3159 21.6863 63.5002 22.424 62.487L26.0817 67.1682H26.0921Z" fill="#FFFAF3"/>
<path id="Vector_2" d="M45.4507 54.9846C45.4507 56.6056 45.1598 58.1227 44.5779 59.5203C43.996 60.9231 43.2063 62.1337 42.2035 63.152C41.2008 64.1755 40.0266 64.9808 38.6809 65.5679C37.3353 66.155 35.8909 66.4512 34.3478 66.4512C32.8048 66.4512 31.3812 66.155 30.0355 65.5679C28.6899 64.9808 27.5105 64.1755 26.5025 63.152C25.4946 62.1285 24.6997 60.9179 24.1178 59.5203C23.5359 58.1175 23.2449 56.6056 23.2449 54.9846C23.2449 53.3636 23.5359 51.8049 24.1178 50.3969C24.6997 48.9889 25.4946 47.7784 26.5025 46.7548C27.5105 45.7313 28.6899 44.9312 30.0355 44.3493C31.3812 43.7674 32.8203 43.4764 34.3478 43.4764C35.8753 43.4764 37.3353 43.7518 38.6809 44.2973C40.0266 44.8429 41.2008 45.6222 42.2035 46.6301C43.2063 47.6381 43.996 48.8486 44.5779 50.2618C45.1598 51.675 45.4507 53.2493 45.4507 54.9794V54.9846ZM39.8707 54.9846C39.8707 54.091 39.7252 53.2857 39.4343 52.5583C39.1433 51.8361 38.7485 51.2126 38.2445 50.6931C37.7457 50.1735 37.1586 49.7735 36.4884 49.4981C35.8182 49.2227 35.1064 49.0824 34.3478 49.0824C33.5893 49.0824 32.8775 49.2227 32.2073 49.4981C31.537 49.7735 30.9551 50.1735 30.4616 50.6931C29.968 51.2126 29.5783 51.8361 29.2926 52.5583C29.0068 53.2805 28.8665 54.091 28.8665 54.9846C28.8665 55.8263 29.0068 56.6004 29.2926 57.3174C29.5783 58.0344 29.9628 58.6579 30.4616 59.1826C30.9551 59.7126 31.537 60.1282 32.2073 60.4295C32.8775 60.7309 33.5893 60.8867 34.3478 60.8867C35.1064 60.8867 35.8182 60.7465 36.4884 60.4607C37.1586 60.175 37.7457 59.7801 38.2445 59.2657C38.7433 58.7514 39.1381 58.1279 39.4343 57.4005C39.7252 56.668 39.8707 55.8626 39.8707 54.9846Z" fill="#FFFAF3"/>
<path id="Vector_3" d="M65.3653 54.9846C65.3653 56.6056 65.0743 58.1227 64.4924 59.5203C63.9105 60.9231 63.1208 62.1337 62.1181 63.152C61.1153 64.1755 59.9411 64.9808 58.5955 65.5679C57.2498 66.155 55.8055 66.4512 54.2624 66.4512C52.7193 66.4512 51.2957 66.155 49.9501 65.5679C48.6044 64.9808 47.425 64.1755 46.4171 63.152C45.4092 62.1285 44.6142 60.9179 44.0323 59.5203C43.4504 58.1175 43.1595 56.6056 43.1595 54.9846C43.1595 53.3636 43.4504 51.8049 44.0323 50.3969C44.6142 48.9889 45.4092 47.7784 46.4171 46.7548C47.425 45.7313 48.6044 44.9312 49.9501 44.3493C51.2957 43.7674 52.7349 43.4764 54.2624 43.4764C55.7899 43.4764 57.2498 43.7518 58.5955 44.2973C59.9411 44.8429 61.1153 45.6222 62.1181 46.6301C63.1208 47.6381 63.9105 48.8486 64.4924 50.2618C65.0743 51.675 65.3653 53.2493 65.3653 54.9794V54.9846ZM59.7853 54.9846C59.7853 54.091 59.6398 53.2857 59.3488 52.5583C59.0579 51.8361 58.663 51.2126 58.1591 50.6931C57.6603 50.1735 57.0732 49.7735 56.403 49.4981C55.7327 49.2227 55.0209 49.0824 54.2624 49.0824C53.5038 49.0824 52.792 49.2227 52.1218 49.4981C51.4516 49.7735 50.8697 50.1735 50.3761 50.6931C49.8825 51.2126 49.4929 51.8361 49.2071 52.5583C48.9214 53.2805 48.7811 54.091 48.7811 54.9846C48.7811 55.8263 48.9214 56.6004 49.2071 57.3174C49.4929 58.0344 49.8773 58.6579 50.3761 59.1826C50.8697 59.7126 51.4516 60.1282 52.1218 60.4295C52.792 60.7309 53.5038 60.8867 54.2624 60.8867C55.0209 60.8867 55.7327 60.7465 56.403 60.4607C57.0732 60.175 57.6603 59.7801 58.1591 59.2657C58.6578 58.7514 59.0527 58.1279 59.3488 57.4005C59.6398 56.668 59.7853 55.8626 59.7853 54.9846Z" fill="#FFFAF3"/>
<path id="Vector_4" d="M72.0364 66.046H66.4564V35.6624H72.0364V54.8236L80.2973 44.3493H86.6723L79.466 53.4L86.6723 66.046H80.2973L75.8915 58.1487L72.0364 63.2611V66.0408V66.046Z" fill="#FFFAF3"/>
<path id="Vector_5" d="M92.9017 38.4056C92.9017 38.9199 92.803 39.3979 92.6056 39.8448C92.4081 40.2916 92.1432 40.6812 91.8055 41.0138C91.4677 41.3463 91.0729 41.6112 90.6157 41.8035C90.1637 42.0009 89.6805 42.0996 89.1661 42.0996C88.6518 42.0996 88.1686 42.0009 87.7166 41.8035C87.2645 41.6061 86.8697 41.3463 86.5372 41.0138C86.2046 40.6812 85.9397 40.2916 85.7474 39.8448C85.55 39.3979 85.4513 38.9199 85.4513 38.4056C85.4513 37.8912 85.55 37.4288 85.7474 36.9768C85.9449 36.5248 86.2046 36.1299 86.5372 35.7974C86.8697 35.4649 87.2593 35.1999 87.7166 35.0077C88.1686 34.8103 88.6518 34.7115 89.1661 34.7115C89.6805 34.7115 90.1637 34.8103 90.6157 35.0077C91.0677 35.2051 91.4625 35.4701 91.8055 35.7974C92.1432 36.1299 92.4133 36.5196 92.6056 36.9768C92.803 37.4288 92.9017 37.9068 92.9017 38.4056ZM91.9457 66.0459H86.3657V44.3077H91.9457V66.0459Z" fill="#FFFAF3"/>
<path id="Vector_6" d="M99.2143 66.046H93.6758V44.3077H95.0163L96.8451 46.4171C97.7388 45.6066 98.7519 44.978 99.8793 44.5416C101.007 44.0999 102.191 43.8817 103.423 43.8817C104.748 43.8817 106 44.1363 107.179 44.6403C108.358 45.1442 109.382 45.8456 110.265 46.7289C111.143 47.6173 111.839 48.6512 112.343 49.8358C112.853 51.0204 113.102 52.2829 113.102 53.6234V66.046H107.564V53.6234C107.564 53.0571 107.454 52.5167 107.241 52.0076C107.023 51.4984 106.727 51.0568 106.348 50.6775C105.969 50.2982 105.527 50.0021 105.028 49.7839C104.529 49.5657 103.994 49.4617 103.423 49.4617C102.851 49.4617 102.295 49.5708 101.781 49.7839C101.267 50.0021 100.82 50.2982 100.44 50.6775C100.061 51.0568 99.765 51.4984 99.5468 52.0076C99.3286 52.5167 99.2247 53.0519 99.2247 53.6234V66.046H99.2143Z" fill="#FFFAF3"/>
<path id="Vector_7" d="M120.08 40.3539C120.08 40.9514 120.023 41.5904 119.908 42.2711C119.794 42.9569 119.612 43.6323 119.363 44.3025C119.113 44.9727 118.786 45.6118 118.381 46.2197C117.975 46.8276 117.487 47.3419 116.921 47.7628L114.728 46.2197C115.092 45.7885 115.373 45.3728 115.56 44.9831C115.747 44.5935 115.897 44.1986 116.006 43.8037C115.601 43.7362 115.222 43.6011 114.869 43.3985C114.515 43.1959 114.214 42.9413 113.965 42.6399C113.715 42.3334 113.512 41.9853 113.367 41.5956C113.216 41.206 113.144 40.7903 113.144 40.3591C113.144 39.9019 113.237 39.4603 113.419 39.0394C113.601 38.6186 113.85 38.2497 114.172 37.9328C114.494 37.6158 114.853 37.3665 115.269 37.1794C115.679 36.9976 116.126 36.9041 116.599 36.9041C117.071 36.9041 117.544 36.9976 117.97 37.1794C118.396 37.3613 118.765 37.6106 119.077 37.9328C119.389 38.2497 119.633 38.6186 119.82 39.0394C120.002 39.4603 120.095 39.8967 120.095 40.3591L120.08 40.3539Z" fill="#FFFAF3"/>
<path id="Vector_8" d="M144.946 54.4183C144.946 56.0289 144.639 57.5409 144.031 58.954C143.423 60.3672 142.592 61.5986 141.537 62.6481C140.483 63.6976 139.246 64.5237 137.833 65.1368C136.42 65.7446 134.908 66.0512 133.297 66.0512C131.687 66.0512 130.175 65.7446 128.761 65.1368C127.348 64.5289 126.117 63.6976 125.067 62.6481C124.018 61.5986 123.192 60.3672 122.579 58.954C121.971 57.5409 121.664 56.0289 121.664 54.4183V36.9457H127.468V54.4183C127.468 55.2184 127.618 55.9666 127.925 56.6732C128.231 57.3746 128.647 57.9929 129.172 58.5176C129.697 59.0424 130.32 59.4632 131.027 59.7646C131.733 60.0659 132.492 60.2218 133.292 60.2218C134.092 60.2218 134.845 60.0711 135.557 59.7646C136.269 59.458 136.887 59.0424 137.412 58.5176C137.937 57.9929 138.358 57.3746 138.659 56.6732C138.966 55.9718 139.116 55.2184 139.116 54.4183V36.9457H144.94V54.4183H144.946Z" fill="#FFFAF3"/>
<path id="Vector_9" d="M153.331 66.0459H147.507V36.9404H159.155C160.226 36.9404 161.254 37.0807 162.242 37.3561C163.229 37.6314 164.154 38.0263 165.011 38.5355C165.868 39.0446 166.653 39.6525 167.364 40.3643C168.076 41.0761 168.684 41.8606 169.193 42.7283C169.702 43.5959 170.092 44.5207 170.373 45.5079C170.648 46.4951 170.788 47.5238 170.788 48.5941C170.788 50.1891 170.482 51.6958 169.874 53.109C169.266 54.5222 168.435 55.7587 167.38 56.8134C166.325 57.8681 165.089 58.6994 163.676 59.3073C162.262 59.9152 160.756 60.2217 159.161 60.2217H153.336V66.0459H153.331ZM153.331 42.7698V54.4183H159.155C159.956 54.4183 160.704 54.2676 161.41 53.9611C162.112 53.6545 162.73 53.2389 163.255 52.7141C163.779 52.1894 164.2 51.5659 164.502 50.8593C164.803 50.1527 164.959 49.3942 164.959 48.5941C164.959 47.7939 164.808 47.0406 164.502 46.3288C164.195 45.617 163.779 44.9987 163.255 44.474C162.73 43.9492 162.112 43.5284 161.41 43.227C160.709 42.9205 159.956 42.7698 159.155 42.7698H153.331Z" fill="#FFFAF3"/>
</g>
<g id="Group_2">
<path id="Vector_10" d="M20.429 22.98C20.429 22.98 25.8791 25.3699 37.2989 13.3007C48.7188 1.23139 53.2545 5.96454 55.3743 8.89483C57.494 11.8199 57.4992 18.1533 53.7584 23.2138C54.2832 17.9091 54.5014 13.4305 53.2805 12.4953C53.7532 14.6879 53.2804 21.4992 50.1683 23.0215C50.7086 17.6441 48.485 14.5632 46.9107 13.815C48.485 16.6778 47.8927 23.1982 47.8927 23.1982C47.8927 23.1982 36.9768 22.2942 27.5625 32.2229C38.2497 26.6584 48.4746 25.7544 54.065 28.3054C54.6001 32.0306 55.4262 35.2675 55.4262 35.2675C55.4262 35.2675 40.7384 31.589 28.2223 42.8114C40.8267 36.3949 51.3165 37.408 58.3149 38.7381C56.1848 27.1884 56.1068 26.8403 56.1068 26.8403C56.1068 26.8403 66.5291 9.76249 57.6187 2.8472C48.7032 -4.06808 41.419 2.8472 35.6571 10.7704C29.8953 18.6936 24.0658 22.98 20.429 22.9852V22.98Z" fill="#F0633C"/>
<path id="Vector_11" d="M26.2531 17.0102C26.2531 17.0102 14.2722 15.0463 13.1292 25.5621C11.9862 36.0779 22.9696 34.857 22.9696 34.857L24.7776 42.2606C24.7776 42.2606 33.9114 34.7738 41.0709 34.3478C41.0709 34.3478 35.122 33.2255 26.0297 38.1613C24.5386 32.4462 24.336 31.8072 24.336 31.8072C24.336 31.8072 18.4234 33.9893 15.9608 28.1079C13.4981 22.2266 18.4702 16.8232 26.2583 17.0102H26.2531Z" fill="#F0633C"/>
</g>
</g>
<defs>
<clipPath id="clip0_2126_2180">
<rect width="170.783" height="72" fill="white"/>
</clipPath>
</defs>
</svg>
