<svg width="56" height="56" viewBox="0 0 56 56" fill="none" xmlns="http://www.w3.org/2000/svg">
<path d="M11.12 38.7101C11.31 38.7101 11.47 38.5501 11.47 38.3601V37.4201C11.47 37.2301 11.31 37.0701 11.12 37.0701C10.93 37.0701 10.77 37.2301 10.77 37.4201V38.3601C10.77 38.5501 10.93 38.7101 11.12 38.7101Z" fill="#F0633C"/>
<path d="M11.1201 38.8301C10.8601 38.8301 10.6401 38.6201 10.6401 38.3501V37.4101C10.6401 37.1501 10.8501 36.9301 11.1201 36.9301C11.3901 36.9301 11.6001 37.1401 11.6001 37.4101V38.3501C11.6001 38.6101 11.3901 38.8301 11.1201 38.8301ZM11.1201 37.1801C10.9901 37.1801 10.8901 37.2801 10.8901 37.4101V38.3501C10.8901 38.4801 10.9901 38.5801 11.1201 38.5801C11.2501 38.5801 11.3501 38.4801 11.3501 38.3501V37.4101C11.3501 37.2801 11.2501 37.1801 11.1201 37.1801Z" fill="#F0633C"/>
<path d="M11.12 39.4C10.93 39.4 10.77 39.56 10.77 39.75V40.69C10.77 40.88 10.93 41.04 11.12 41.04C11.31 41.04 11.47 40.88 11.47 40.69V39.75C11.47 39.56 11.31 39.4 11.12 39.4Z" fill="#F0633C"/>
<path d="M11.1201 41.18C10.8601 41.18 10.6401 40.97 10.6401 40.7V39.76C10.6401 39.5 10.8501 39.28 11.1201 39.28C11.3901 39.28 11.6001 39.49 11.6001 39.76V40.7C11.6001 40.96 11.3901 41.18 11.1201 41.18ZM11.1201 39.53C10.9901 39.53 10.8901 39.63 10.8901 39.76V40.7C10.8901 40.83 10.9901 40.93 11.1201 40.93C11.2501 40.93 11.3501 40.83 11.3501 40.7V39.76C11.3501 39.63 11.2501 39.53 11.1201 39.53Z" fill="#F0633C"/>
<path d="M12.77 38.7H11.83C11.64 38.7 11.48 38.8599 11.48 39.0499C11.48 39.2399 11.64 39.4 11.83 39.4H12.77C12.96 39.4 13.12 39.2399 13.12 39.0499C13.12 38.8599 12.96 38.7 12.77 38.7Z" fill="#F0633C"/>
<path d="M12.7701 39.5299H11.8301C11.5701 39.5299 11.3501 39.3199 11.3501 39.0499C11.3501 38.7799 11.5601 38.5699 11.8301 38.5699H12.7701C13.0301 38.5699 13.2501 38.7799 13.2501 39.0499C13.2501 39.3199 13.0401 39.5299 12.7701 39.5299ZM11.8301 38.8199C11.7001 38.8199 11.6001 38.9199 11.6001 39.0499C11.6001 39.1799 11.7001 39.2799 11.8301 39.2799H12.7701C12.9001 39.2799 13.0001 39.1799 13.0001 39.0499C13.0001 38.9199 12.9001 38.8199 12.7701 38.8199H11.8301Z" fill="#F0633C"/>
<path d="M10.4199 38.7H9.47988C9.28988 38.7 9.12988 38.8599 9.12988 39.0499C9.12988 39.2399 9.28988 39.4 9.47988 39.4H10.4199C10.6099 39.4 10.7699 39.2399 10.7699 39.0499C10.7699 38.8599 10.6099 38.7 10.4199 38.7Z" fill="#F0633C"/>
<path d="M10.42 39.5299H9.48C9.22 39.5299 9 39.3199 9 39.0499C9 38.7799 9.21 38.5699 9.48 38.5699H10.42C10.68 38.5699 10.9 38.7799 10.9 39.0499C10.9 39.3199 10.69 39.5299 10.42 39.5299ZM9.48 38.8199C9.35 38.8199 9.25 38.9199 9.25 39.0499C9.25 39.1799 9.35 39.2799 9.48 39.2799H10.42C10.55 39.2799 10.65 39.1799 10.65 39.0499C10.65 38.9199 10.55 38.8199 10.42 38.8199H9.48Z" fill="#F0633C"/>
<path d="M46.08 14.81C46.27 14.81 46.43 14.65 46.43 14.46V13.52C46.43 13.33 46.27 13.17 46.08 13.17C45.89 13.17 45.73 13.33 45.73 13.52V14.46C45.73 14.65 45.89 14.81 46.08 14.81Z" fill="#F0633C"/>
<path d="M46.0801 14.93C45.8201 14.93 45.6001 14.72 45.6001 14.45V13.51C45.6001 13.25 45.8101 13.03 46.0801 13.03C46.3501 13.03 46.5601 13.24 46.5601 13.51V14.45C46.5601 14.71 46.3501 14.93 46.0801 14.93ZM46.0801 13.28C45.9501 13.28 45.8501 13.38 45.8501 13.51V14.45C45.8501 14.58 45.9501 14.68 46.0801 14.68C46.2101 14.68 46.3101 14.58 46.3101 14.45V13.51C46.3101 13.38 46.2101 13.28 46.0801 13.28Z" fill="#F0633C"/>
<path d="M46.08 15.5C45.89 15.5 45.73 15.66 45.73 15.85V16.79C45.73 16.98 45.89 17.14 46.08 17.14C46.27 17.14 46.43 16.98 46.43 16.79V15.85C46.43 15.66 46.27 15.5 46.08 15.5Z" fill="#F0633C"/>
<path d="M46.0801 17.27C45.8201 17.27 45.6001 17.06 45.6001 16.79V15.85C45.6001 15.59 45.8101 15.37 46.0801 15.37C46.3501 15.37 46.5601 15.58 46.5601 15.85V16.79C46.5601 17.05 46.3501 17.27 46.0801 17.27ZM46.0801 15.62C45.9501 15.62 45.8501 15.72 45.8501 15.85V16.79C45.8501 16.92 45.9501 17.02 46.0801 17.02C46.2101 17.02 46.3101 16.92 46.3101 16.79V15.85C46.3101 15.72 46.2101 15.62 46.0801 15.62Z" fill="#F0633C"/>
<path d="M47.7197 14.8H46.7797C46.5897 14.8 46.4297 14.96 46.4297 15.15C46.4297 15.34 46.5897 15.5 46.7797 15.5H47.7197C47.9097 15.5 48.0697 15.34 48.0697 15.15C48.0697 14.96 47.9097 14.8 47.7197 14.8Z" fill="#F0633C"/>
<path d="M47.7198 15.63H46.7798C46.5198 15.63 46.2998 15.42 46.2998 15.15C46.2998 14.88 46.5098 14.67 46.7798 14.67H47.7198C47.9798 14.67 48.1998 14.88 48.1998 15.15C48.1998 15.42 47.9898 15.63 47.7198 15.63ZM46.7798 14.92C46.6498 14.92 46.5498 15.02 46.5498 15.15C46.5498 15.28 46.6498 15.38 46.7798 15.38H47.7198C47.8498 15.38 47.9498 15.28 47.9498 15.15C47.9498 15.02 47.8498 14.92 47.7198 14.92H46.7798Z" fill="#F0633C"/>
<path d="M45.3798 14.8H44.4398C44.2498 14.8 44.0898 14.96 44.0898 15.15C44.0898 15.34 44.2498 15.5 44.4398 15.5H45.3798C45.5698 15.5 45.7298 15.34 45.7298 15.15C45.7298 14.96 45.5698 14.8 45.3798 14.8Z" fill="#F0633C"/>
<path d="M45.38 15.63H44.44C44.18 15.63 43.96 15.42 43.96 15.15C43.96 14.88 44.17 14.67 44.44 14.67H45.38C45.64 14.67 45.86 14.88 45.86 15.15C45.86 15.42 45.65 15.63 45.38 15.63ZM44.44 14.92C44.31 14.92 44.21 15.02 44.21 15.15C44.21 15.28 44.31 15.38 44.44 15.38H45.38C45.51 15.38 45.61 15.28 45.61 15.15C45.61 15.02 45.51 14.92 45.38 14.92H44.44Z" fill="#F0633C"/>
<path d="M30.5103 41.9999C30.7003 41.9999 30.8603 41.8399 30.8603 41.6499C30.8603 41.4599 30.7003 41.2999 30.5103 41.2999H18.7803L18.6503 40.9599V8.86994H41.3403V26.4099C41.3403 26.5999 41.5003 26.7599 41.6903 26.7599C41.8803 26.7599 42.0403 26.5999 42.0403 26.4099V8.50994C42.0403 8.31994 41.8803 8.15994 41.6903 8.15994H31.4903L30.5503 5.62994C30.4803 5.44994 30.2803 5.34994 30.1003 5.41994L22.6703 8.15994H18.3003C18.1103 8.15994 17.9503 8.31994 17.9503 8.50994V9.89994L8.15033 13.5099C8.06033 13.5399 7.99033 13.6099 7.95033 13.6899C7.91033 13.7699 7.91033 13.8699 7.94033 13.9599L17.9403 41.0699V41.6399C17.9403 41.8299 18.0903 41.9799 18.2803 41.9899L19.4103 45.0399C19.4603 45.1799 19.6003 45.2699 19.7403 45.2699C19.7803 45.2699 19.8203 45.2699 19.8603 45.2499L28.7003 41.9899H30.5003L30.5103 41.9999ZM30.0203 6.20994L30.7403 8.16994H24.7203L30.0203 6.20994ZM17.9603 10.6599V39.0399L8.73033 14.0499L17.9503 10.6499L17.9603 10.6599ZM19.9703 44.4799L19.0603 41.9999H26.6903L19.9803 44.4799H19.9703Z" fill="#F0633C"/>
<path d="M19.7501 45.4C19.5501 45.4 19.3701 45.28 19.3001 45.09L18.2001 42.11C17.9901 42.06 17.8301 41.87 17.8301 41.65V41.1L7.83012 14.01C7.79012 13.89 7.79012 13.76 7.84012 13.64C7.89012 13.52 7.99012 13.43 8.11012 13.39L17.8201 9.80997V8.50997C17.8201 8.24997 18.0301 8.02997 18.3001 8.02997H22.6501L30.0601 5.29997C30.1801 5.25997 30.3101 5.25997 30.4201 5.30997C30.5401 5.35997 30.6201 5.45997 30.6701 5.57997L31.5801 8.02997H41.7001C41.9601 8.02997 42.1801 8.23997 42.1801 8.50997V26.41C42.1801 26.67 41.9701 26.89 41.7001 26.89C41.4301 26.89 41.2201 26.68 41.2201 26.41V8.98997H18.7801V40.92L18.8701 41.16H30.5101C30.7701 41.16 30.9901 41.37 30.9901 41.64C30.9901 41.91 30.7801 42.12 30.5101 42.12H28.7401L19.9301 45.37C19.8701 45.39 19.8201 45.4 19.7601 45.4H19.7501ZM18.3001 8.27997C18.1701 8.27997 18.0701 8.37997 18.0701 8.50997V9.97997L17.9901 10.01L8.19012 13.62C8.13012 13.64 8.09012 13.68 8.06012 13.74C8.03012 13.8 8.03012 13.86 8.06012 13.92L18.0701 41.07V41.64C18.0701 41.76 18.1701 41.86 18.2901 41.86H18.3701L19.5301 45C19.5701 45.11 19.7001 45.18 19.8301 45.13L28.7101 41.86H30.5501C30.6601 41.84 30.7401 41.75 30.7401 41.64C30.7401 41.51 30.6401 41.41 30.5101 41.41H18.7001L18.5301 40.94V8.73997H41.4701V26.41C41.4701 26.54 41.5701 26.64 41.7001 26.64C41.8301 26.64 41.9301 26.54 41.9301 26.41V8.50997C41.9301 8.37997 41.8301 8.27997 41.7001 8.27997H31.4101L30.4401 5.66997C30.4201 5.60997 30.3801 5.56997 30.3201 5.53997C30.2601 5.50997 30.2001 5.50997 30.1501 5.53997L22.6801 8.28997H18.3101L18.3001 8.27997ZM19.8801 44.63L18.8601 41.87H27.3701L19.8801 44.63ZM19.2201 42.12L20.0301 44.31L25.9701 42.12H19.2201ZM18.0701 39.73L8.57012 13.98L18.0801 10.48V39.74L18.0701 39.73ZM8.89012 14.13L17.8201 38.34V10.84L8.89012 14.13ZM30.9201 8.28997H24.0201L30.0901 6.04997L30.9201 8.28997ZM25.4201 8.03997H30.5701L29.9501 6.36997L25.4201 8.03997Z" fill="#F0633C"/>
<path d="M40.54 27.6999C38.79 26.9199 36.84 26.8599 35.05 27.5399C33.26 28.2199 31.84 29.5599 31.06 31.3099C30.28 33.0599 30.22 35.0099 30.9 36.7999C31.54 38.4799 32.76 39.8299 34.36 40.6399L33.86 41.7599L32.66 41.2199C32.48 41.1399 32.27 41.2199 32.19 41.3999L29.35 47.7499C28.89 48.7699 29.35 49.9699 30.37 50.4299C30.64 50.5499 30.92 50.6099 31.2 50.6099C31.97 50.6099 32.71 50.1699 33.05 49.4099L35.89 43.0599C35.93 42.9799 35.93 42.8799 35.89 42.7899C35.85 42.6999 35.79 42.6299 35.7 42.5899L34.5 42.0499L35 40.9299C35.84 41.2599 36.72 41.4299 37.6 41.4299C38.48 41.4299 39.33 41.2699 40.16 40.9599C41.95 40.2799 43.37 38.9399 44.15 37.1899C44.93 35.4399 44.99 33.4899 44.31 31.6999C43.63 29.9099 42.29 28.4899 40.54 27.7099V27.6999ZM32.39 49.1099C32.25 49.4299 31.98 49.6799 31.66 49.7999C31.34 49.9199 30.97 49.9199 30.65 49.7699C30.33 49.6199 30.08 49.3599 29.96 49.0399C29.84 48.7199 29.84 48.3499 29.99 48.0299L32.69 41.9999L35.1 43.0799L32.4 49.1099H32.39ZM43.51 36.8999C42.8 38.4799 41.52 39.6899 39.91 40.2999C38.29 40.9199 36.53 40.8699 34.96 40.1599C33.39 39.4499 32.17 38.1699 31.56 36.5599C30.94 34.9399 30.99 33.1799 31.7 31.6099C32.41 30.0399 33.69 28.8199 35.3 28.2099C36.05 27.9199 36.83 27.7799 37.61 27.7799C38.51 27.7799 39.41 27.9699 40.25 28.3499C41.83 29.0599 43.04 30.3399 43.65 31.9499C44.27 33.5699 44.22 35.3299 43.51 36.8999Z" fill="#F0633C"/>
<path d="M31.1898 50.73C30.8898 50.73 30.5898 50.67 30.3098 50.54C29.7898 50.31 29.3798 49.88 29.1798 49.34C28.9798 48.8 28.9898 48.22 29.2298 47.69L32.0698 41.34C32.1198 41.22 32.2198 41.13 32.3398 41.09C32.4598 41.05 32.5898 41.05 32.7098 41.1L33.7998 41.59L34.1998 40.7C32.6298 39.87 31.4198 38.51 30.7898 36.85C30.0898 35.03 30.1498 33.04 30.9498 31.26C31.7498 29.48 33.1898 28.11 35.0098 27.42C36.8298 26.72 38.8198 26.78 40.5998 27.58C42.3798 28.38 43.7398 29.82 44.4398 31.64C45.1398 33.46 45.0798 35.45 44.2798 37.23C43.4798 39.02 42.0398 40.38 40.2198 41.07C38.5698 41.69 36.7898 41.72 35.0798 41.08L34.6798 41.97L35.7698 42.46C35.8898 42.51 35.9698 42.6 36.0198 42.73C36.0698 42.85 36.0598 42.98 36.0198 43.1L33.1798 49.45C32.8398 50.22 32.0598 50.72 31.2198 50.72L31.1898 50.73ZM32.5098 41.32C32.5098 41.32 32.4598 41.32 32.4298 41.33C32.3698 41.35 32.3298 41.39 32.2998 41.45L29.4598 47.8C29.2498 48.26 29.2398 48.78 29.4198 49.25C29.5998 49.73 29.9598 50.1 30.4198 50.31C30.6698 50.42 30.9298 50.48 31.1998 50.48C31.9498 50.48 32.6298 50.04 32.9398 49.36L35.7798 43.01C35.8098 42.95 35.8098 42.89 35.7798 42.84C35.7598 42.78 35.7098 42.73 35.6598 42.71L34.3398 42.12L34.9398 40.78L35.0498 40.82C36.7398 41.48 38.4898 41.47 40.1198 40.85C41.8798 40.18 43.2698 38.86 44.0398 37.14C44.8098 35.42 44.8598 33.5 44.1898 31.74C43.5198 29.98 42.1998 28.59 40.4798 27.82C38.7598 27.05 36.8398 27 35.0798 27.67C33.3198 28.34 31.9298 29.66 31.1598 31.38C30.3898 33.1 30.3398 35.02 31.0098 36.78C31.6298 38.41 32.8398 39.75 34.4098 40.55L34.5198 40.6L33.9198 41.94L32.5998 41.35C32.5998 41.35 32.5398 41.33 32.5098 41.33V41.32ZM31.1898 50.02C30.9898 50.02 30.7898 49.98 30.5998 49.89C30.2498 49.73 29.9798 49.44 29.8398 49.09C29.6998 48.73 29.7098 48.33 29.8698 47.98L32.6198 41.84L35.2598 43.02L35.2098 43.13L32.5098 49.16C32.3498 49.51 32.0698 49.78 31.7098 49.92C31.5398 49.98 31.3698 50.01 31.1898 50.01V50.02ZM32.7498 42.17L30.0998 48.08C29.9698 48.37 29.9598 48.69 30.0698 49C30.1798 49.3 30.3998 49.53 30.6998 49.66C30.9898 49.79 31.3098 49.8 31.6198 49.68C31.9198 49.57 32.1498 49.35 32.2798 49.05L34.9298 43.14L32.7498 42.16V42.17ZM37.5998 40.86C36.6798 40.86 35.7698 40.67 34.8998 40.28C33.2898 39.56 32.0598 38.26 31.4298 36.61C30.7998 34.97 30.8498 33.17 31.5698 31.56C32.2898 29.95 33.5898 28.72 35.2398 28.09C36.8698 27.47 38.6798 27.52 40.2898 28.23C41.8998 28.95 43.1298 30.25 43.7598 31.9C44.3898 33.55 44.3398 35.34 43.6198 36.95C42.8998 38.56 41.5998 39.79 39.9498 40.42C39.1898 40.71 38.3898 40.86 37.5998 40.86ZM37.5998 27.9C36.8298 27.9 36.0598 28.04 35.3298 28.32C33.7398 28.93 32.4898 30.11 31.7998 31.66C31.1098 33.21 31.0598 34.94 31.6598 36.52C32.2698 38.11 33.4498 39.36 34.9998 40.05C36.5498 40.74 38.2798 40.79 39.8598 40.19C41.4498 39.58 42.6998 38.4 43.3898 36.85C44.0898 35.3 44.1298 33.58 43.5298 31.99C42.9198 30.4 41.7398 29.15 40.1898 28.46C39.3598 28.09 38.4898 27.9 37.5998 27.9Z" fill="#F0633C"/>
<path d="M39.7999 29.3599C38.4899 28.7699 37.0399 28.7299 35.6999 29.2399C34.3599 29.7499 33.2999 30.7499 32.7199 32.0599C31.5099 34.7599 32.7199 37.9299 35.4199 39.1399C36.1299 39.4599 36.8699 39.6099 37.5999 39.6099C39.6499 39.6099 41.6099 38.4299 42.4999 36.4399C43.0899 35.1299 43.1299 33.6799 42.6199 32.3399C42.1099 30.9999 41.1099 29.9399 39.8099 29.3599H39.7999ZM41.8599 36.1499C40.8099 38.4899 38.0499 39.5399 35.7099 38.4899C33.3699 37.4399 32.3199 34.6799 33.3699 32.3399C34.1399 30.6099 35.8499 29.5899 37.6199 29.5899C38.2599 29.5899 38.8999 29.7199 39.5199 29.9999C41.8599 31.0499 42.9099 33.8099 41.8599 36.1499Z" fill="#F0633C"/>
<path d="M37.6001 39.73C36.8301 39.73 36.0801 39.57 35.3701 39.25C32.6101 38.01 31.3701 34.76 32.6101 32C33.2101 30.66 34.2901 29.64 35.6601 29.12C37.0301 28.6 38.5201 28.64 39.8601 29.24C41.2001 29.84 42.2201 30.92 42.7401 32.29C43.2601 33.66 43.2201 35.15 42.6201 36.49C41.7401 38.46 39.7701 39.73 37.6101 39.73H37.6001ZM37.6101 29.01C36.9801 29.01 36.3501 29.12 35.7401 29.36C34.4301 29.86 33.4001 30.83 32.8301 32.11C31.6501 34.74 32.8301 37.85 35.4701 39.03C36.1501 39.33 36.8701 39.49 37.6001 39.49C39.6701 39.49 41.5401 38.28 42.3801 36.4C42.9501 35.12 42.9901 33.7 42.4901 32.4C41.9901 31.09 41.0201 30.06 39.7401 29.49C39.0601 29.18 38.3301 29.03 37.6001 29.03L37.6101 29.01ZM37.6001 39.02C36.9501 39.02 36.2901 38.89 35.6601 38.6C34.5001 38.08 33.6101 37.13 33.1501 35.94C32.6901 34.75 32.7301 33.45 33.2501 32.29C34.0201 30.57 35.7301 29.47 37.6201 29.47C38.2901 29.47 38.9501 29.61 39.5701 29.89C40.7301 30.41 41.6201 31.36 42.0801 32.55C42.5401 33.74 42.5001 35.04 41.9801 36.2C41.1901 37.97 39.4401 39.02 37.6101 39.02H37.6001ZM37.6101 29.72C35.8301 29.72 34.2001 30.77 33.4701 32.4C32.4501 34.68 33.4701 37.36 35.7501 38.38C38.0301 39.4 40.7101 38.38 41.7301 36.1C42.2201 35 42.2601 33.77 41.8301 32.64C41.4001 31.51 40.5501 30.61 39.4501 30.12C38.8601 29.86 38.2401 29.72 37.6001 29.72H37.6101Z" fill="#F0633C"/>
</svg>
